<svg width="96" height="96" xmlns="http://www.w3.org/2000/svg" xmlns:xlink="http://www.w3.org/1999/xlink" xml:space="preserve" overflow="hidden"><g transform="translate(-592 -312)"><path d="M670.5 329.5 669.5 320.5 658.5 331.5 659.1 336.7 643.1 352.7C641.7 352 640.1 351.5 638.4 351.5 632.9 351.5 628.4 356 628.4 361.5 628.4 367 632.9 371.5 638.4 371.5 643.9 371.5 648.4 367 648.4 361.5 648.4 359.8 648 358.3 647.3 356.9L663.3 340.9 668.5 341.5 679.5 330.5 670.5 329.5Z" fill="#FFFFFF"/><path d="M671.3 344.3 670 345.7 668.1 345.5 666 345.2C668.8 350 670.5 355.5 670.5 361.5 670.5 379.1 656.1 393.5 638.5 393.5 620.9 393.5 606.5 379.1 606.5 361.5 606.5 343.9 620.9 329.5 638.5 329.5 644.4 329.5 650 331.1 654.8 334L654.6 332 654.3 330 655.7 328.6 656.4 327.9C651 325.1 645 323.5 638.5 323.5 617.5 323.5 600.5 340.5 600.5 361.5 600.5 382.5 617.5 399.5 638.5 399.5 659.5 399.5 676.5 382.5 676.5 361.5 676.5 355 674.9 349 672 343.7L671.3 344.3Z" fill="#FFFFFF"/><path d="M655.2 354.7C656.1 356.8 656.5 359.1 656.5 361.5 656.5 371.4 648.4 379.5 638.5 379.5 628.6 379.5 620.5 371.4 620.5 361.5 620.5 351.6 628.6 343.5 638.5 343.5 640.9 343.5 643.2 344 645.3 344.8L649.8 340.3C646.4 338.5 642.6 337.5 638.5 337.5 625.3 337.5 614.5 348.3 614.5 361.5 614.5 374.7 625.3 385.5 638.5 385.5 651.7 385.5 662.5 374.7 662.5 361.5 662.5 357.4 661.5 353.6 659.7 350.2L655.2 354.7Z" fill="#FFFFFF"/></g></svg>