<svg width="263" height="262" xmlns="http://www.w3.org/2000/svg" xmlns:xlink="http://www.w3.org/1999/xlink" xml:space="preserve" overflow="hidden"><g transform="translate(-517 -192)"><path d="M214.24 47.7604 211.51 23.1979 181.49 53.2188 183.127 67.4104 139.46 111.077C135.64 109.167 131.273 107.802 126.633 107.802 111.623 107.802 99.3417 120.083 99.3417 135.094 99.3417 150.104 111.623 162.385 126.633 162.385 141.644 162.385 153.925 150.104 153.925 135.094 153.925 130.454 152.833 126.36 150.923 122.54L194.59 78.8729 208.781 80.5104 238.802 50.4896 214.24 47.7604Z" fill="#006AA3" transform="matrix(1.00382 0 0 1 517 192)"/><path d="M216.423 88.1521 212.875 91.9729 207.69 91.4271 201.958 90.6083C209.6 103.708 214.24 118.719 214.24 135.094 214.24 183.127 174.94 222.427 126.906 222.427 78.8729 222.427 39.5729 183.127 39.5729 135.094 39.5729 87.0604 78.8729 47.7604 126.906 47.7604 143.008 47.7604 158.292 52.1271 171.392 60.0417L170.846 54.5833 170.027 49.125 173.848 45.3042 175.758 43.3937C161.021 35.7521 144.646 31.3854 126.906 31.3854 69.5938 31.3854 23.1979 77.7812 23.1979 135.094 23.1979 192.406 69.5938 238.802 126.906 238.802 184.219 238.802 230.615 192.406 230.615 135.094 230.615 117.354 226.248 100.979 218.333 86.5146L216.423 88.1521Z" fill="#006AA3" transform="matrix(1.00382 0 0 1 517 192)"/><path d="M172.483 116.535C174.94 122.267 176.031 128.544 176.031 135.094 176.031 162.113 153.925 184.219 126.906 184.219 99.8875 184.219 77.7812 162.113 77.7812 135.094 77.7812 108.075 99.8875 85.9688 126.906 85.9688 133.456 85.9688 139.733 87.3333 145.465 89.5167L157.746 77.2354C148.467 72.3229 138.096 69.5938 126.906 69.5938 90.8812 69.5938 61.4062 99.0687 61.4062 135.094 61.4062 171.119 90.8812 200.594 126.906 200.594 162.931 200.594 192.406 171.119 192.406 135.094 192.406 123.904 189.677 113.533 184.765 104.254L172.483 116.535Z" fill="#006AA3" transform="matrix(1.00382 0 0 1 517 192)"/></g></svg>